<svg xmlns:dc="http://purl.org/dc/elements/1.1/" xmlns:cc="http://creativecommons.org/ns#" xmlns:rdf="http://www.w3.org/1999/02/22-rdf-syntax-ns#" xmlns:svg="http://www.w3.org/2000/svg" xmlns="http://www.w3.org/2000/svg"
   viewBox="0 0 372.29333 142.73334" height="142.73334" width="372.29333" xml:space="preserve" id="svg2" version="1.1">
   <metadata id="metadata8">
   		<rdf:RDF><cc:Work rdf:about=""><dc:format>image/svg+xml</dc:format><dc:type rdf:resource="http://purl.org/dc/dcmitype/StillImage" /></cc:Work></rdf:RDF>
   </metadata>
   <defs id="defs6" />

     <g transform="matrix(1.3333333,0,0,-1.3333333,0,142.73333)" id="g10">
     	<g transform="scale(0.1)" id="g12">
     		<path id="path14" style="fill:#c91c2e;fill-opacity:1;fill-rule:nonzero;stroke:none" d="M 732.496,567.348 C 856.375,538.285 955.758,446.535 955.758,299.727 955.758,111.641 798.25,0 553.57,0 H -0.00390625 V 1070.45 H 542.879 c 189.617,0 353.242,-70.33 353.242,-281.372 0,-113.16 -84.101,-188.09 -163.625,-218.683 z m -281.375,85.64 c 74.93,0 116.219,30.578 116.219,84.098 0,58.109 -32.11,87.172 -108.574,87.172 H 328.785 V 652.988 Z M 506.18,246.211 c 77.988,0 120.8,25.988 120.8,85.625 0,53.535 -39.757,82.59 -128.449,82.59 H 328.785 V 246.211 H 506.18" />
     		<path id="path16" style="fill:#c91c2e;fill-opacity:1;fill-rule:nonzero;stroke:none" d="m 1815.58,542.875 v 527.585 h 321.14 V 0 h -290.55 l -446.54,565.805 h -3.05 V 0 h -324.2 v 1070.46 h 324.2 L 1811,542.875 h 4.58" />
     		<path id="path18" style="fill:#c91c2e;fill-opacity:1;fill-rule:nonzero;stroke:none" d="m 2275.17,1070.46 h 328.8 l -328.8,-327.433 z" />
     		<path id="path20" style="fill:#c91c2e;fill-opacity:1;fill-rule:nonzero;stroke:none" d="m 2275.17,617.715 328.8,327.433 V 0 h -328.8 v 617.715" />
     		<path id="path22" style="fill:#c91c2e;fill-opacity:1;fill-rule:nonzero;stroke:none" d="m 2687.31,41.1406 c 2.49,-6.1797 5.93,-11.5625 10.32,-16.1093 4.4,-4.5508 9.57,-8.1329 15.56,-10.711 5.98,-2.6015 12.47,-3.8906 19.44,-3.8906 6.89,0 13.28,1.2891 19.21,3.8906 5.94,2.5781 11.1,6.1602 15.48,10.711 4.4,4.5468 7.85,9.9296 10.33,16.1093 2.49,6.1992 3.73,12.9375 3.73,20.2578 0,7.0821 -1.24,13.6993 -3.73,19.8438 -2.48,6.1289 -5.93,11.4531 -10.33,15.957 -4.38,4.4918 -9.54,8.0348 -15.48,10.6328 -5.93,2.598 -12.32,3.887 -19.21,3.887 -6.97,0 -13.46,-1.289 -19.44,-3.887 -5.99,-2.598 -11.16,-6.141 -15.56,-10.6328 -4.39,-4.5039 -7.83,-9.8281 -10.32,-15.957 -2.48,-6.1445 -3.74,-12.7617 -3.74,-19.8438 0,-7.3203 1.26,-14.0586 3.74,-20.2578 z m -9.75,43.586 c 3.16,7.1992 7.48,13.4492 12.93,18.7304 5.45,5.293 11.79,9.453 19.06,12.473 7.24,3.015 14.94,4.519 23.08,4.519 8.16,0 15.83,-1.504 23.03,-4.519 7.2,-3.02 13.5,-7.18 18.9,-12.473 5.39,-5.2812 9.68,-11.5312 12.86,-18.7304 3.17,-7.1953 4.75,-14.9649 4.75,-23.3282 0,-8.5781 -1.58,-16.5 -4.75,-23.7382 -3.18,-7.2618 -7.47,-13.5586 -12.86,-18.8985 -5.4,-5.3398 -11.7,-9.49998 -18.9,-12.46092 -7.2,-2.97265 -14.87,-4.4414 -23.03,-4.4414 -8.14,0 -15.84,1.46875 -23.08,4.4414 -7.27,2.96094 -13.61,7.12112 -19.06,12.46092 -5.45,5.3399 -9.77,11.6367 -12.93,18.8985 -3.19,7.2382 -4.77,15.1601 -4.77,23.7382 0,8.3633 1.58,16.1329 4.77,23.3282" />
     		<path id="path24" style="fill:#c91c2e;fill-opacity:1;fill-rule:nonzero;stroke:none" d="m 2731.29,63.9609 h -11.27 v 22.0664 h 14.29 c 1.8,0 3.62,-0.1367 5.48,-0.4023 1.85,-0.2617 3.49,-0.7695 4.92,-1.5117 1.42,-0.7422 2.58,-1.7969 3.49,-3.1641 0.91,-1.3789 1.36,-3.2344 1.36,-5.5586 0,-2.7617 -0.51,-4.9023 -1.52,-6.4297 -1,-1.5507 -2.36,-2.6796 -4.04,-3.4218 -1.71,-0.7383 -3.63,-1.1875 -5.8,-1.3477 -2.17,-0.1601 -4.47,-0.2305 -6.91,-0.2305 z m 9.77,-6.7304 c 5.01,0.5078 9.22,2.1679 12.61,5 3.38,2.8203 5.07,7.25 5.07,13.3086 0,6.4531 -1.92,11.2695 -5.76,14.4531 -3.85,3.1719 -9.77,4.7656 -17.77,4.7656 h -25.99 v -67.207 h 10.46 v 28.9101 h 11.08 l 18.29,-28.9101 h 11.23 l -19.22,29.6797" />
         </g>
     </g>
</svg>
